<svg width="29" height="36" viewBox="0 0 29 36" fill="none" xmlns="http://www.w3.org/2000/svg">
<path d="M11.9495 0.615292C7.47847 1.27834 3.79691 3.76071 2.4423 7.01123C2.01016 8.03814 1.89381 8.66884 1.89381 9.90598C1.90212 10.8197 1.93536 11.1593 2.07664 11.6525C2.36751 12.6228 2.57527 13.1161 3.00742 13.8115L3.40632 14.4583L2.95755 15.0082C-0.591032 19.4231 -0.981625 25.633 1.97691 30.525C3.08221 32.3605 4.88559 34.1637 6.64742 35.2148L7.17098 35.5221L14.3346 35.4655L21.5066 35.4008L21.8473 35.2148C23.0357 34.5437 24.7144 33.0478 25.6535 31.8349C27.0663 29.9913 27.9888 27.8405 28.3794 25.5118C28.5123 24.6789 28.5123 22.2127 28.3711 21.4284C27.9472 19.0107 27.0414 16.9407 25.612 15.1052C25.3377 14.7575 25.1217 14.4664 25.1217 14.4422C25.1217 14.426 25.2712 14.1753 25.4458 13.8923C25.853 13.2455 26.2186 12.4126 26.4181 11.6849C26.6425 10.8763 26.6425 8.85482 26.4181 8.04623C25.6203 5.17574 23.2269 2.78231 19.8445 1.46431C18.8971 1.09236 17.2765 0.696152 16.2294 0.566776C15.2571 0.453575 12.8554 0.477833 11.9495 0.615292ZM17.0106 1.93329C21.4484 2.79848 24.6978 5.51534 25.2962 8.8629C25.4291 9.61489 25.346 10.8925 25.1217 11.604C24.8973 12.2994 24.4818 13.1161 23.9914 13.8115C23.792 14.0945 23.6258 14.4179 23.6258 14.523C23.6258 14.6281 23.8003 14.9031 24.0496 15.178C26.1272 17.4825 27.2242 20.3691 27.2242 23.4903C27.2159 27.04 25.853 30.1531 23.2269 32.595C22.7781 33.0155 22.1382 33.5411 21.7975 33.7675L21.1742 34.1879L14.3014 34.2122L7.43691 34.2445L6.90504 33.9049C4.977 32.6516 3.24011 30.5816 2.27609 28.3823C1.06276 25.6007 0.938101 22.3744 1.92705 19.4797C2.45061 17.9757 3.14869 16.7467 4.21244 15.4529C4.64458 14.9354 4.84404 14.6281 4.84404 14.4826C4.84404 14.3613 4.62796 13.9651 4.34541 13.5527C3.34815 12.1053 2.94093 10.4963 3.18194 8.97611C3.43125 7.43979 4.12933 6.17839 5.41746 4.92507C7.09618 3.29981 9.43974 2.22438 12.1905 1.82009C13.3291 1.65029 15.8471 1.71497 17.0106 1.93329Z" fill="black"/>
<path d="M12.3229 3.35635C8.91555 3.91428 6.24787 5.80638 5.37527 8.28875C5.17582 8.84667 5.14258 9.06499 5.14258 9.86549C5.14258 10.666 5.17582 10.8843 5.37527 11.4422C5.49993 11.798 5.73262 12.2913 5.89052 12.5419C6.32267 13.2373 6.51381 13.2616 7.36979 12.7441C8.64961 11.9597 10.1206 11.3856 11.6497 11.0703C12.6802 10.8601 14.6581 10.7792 15.78 10.9086C17.5335 11.1107 19.4366 11.7414 20.9575 12.639C21.3896 12.8896 21.8301 13.0999 21.9381 13.0999C22.5697 13.0999 23.3758 11.2805 23.3758 9.86549C23.3758 6.72008 20.3674 4.02748 16.1041 3.35635C15.1983 3.2108 13.1955 3.2108 12.3229 3.35635ZM16.4365 4.65009C17.866 4.95736 19.179 5.53954 20.168 6.3077C21.4976 7.33461 22.2123 8.76581 22.096 10.1485C22.0544 10.6983 21.8467 11.4422 21.722 11.5231C21.6888 11.5393 21.2234 11.3452 20.6915 11.0865C19.5862 10.5528 18.3313 10.1242 17.0598 9.84932C16.287 9.68761 15.9628 9.66335 14.2343 9.67143C12.5306 9.67143 12.1733 9.69569 11.4336 9.84932C10.1538 10.1242 9.15655 10.4639 7.9266 11.046C6.68833 11.6363 6.75482 11.6444 6.53043 10.9167C6.23956 9.97061 6.4224 8.7173 6.98751 7.77125C7.28669 7.26992 8.10943 6.43708 8.70778 6.0247C9.84632 5.24036 10.8436 4.88458 12.9877 4.49646C13.4281 4.4156 15.8714 4.5288 16.4365 4.65009Z" fill="black"/>
<path d="M15.0827 15.0808C14.85 15.3719 14.85 15.6468 15.091 15.8813C15.2489 16.035 15.4068 16.0754 15.9802 16.1158C17.0938 16.1967 18.1576 16.5201 19.1133 17.07C19.7947 17.4743 20.8335 18.4526 21.2989 19.1561C21.9887 20.1669 22.4624 21.6142 22.4624 22.6816C22.4624 23.0535 22.4956 23.1667 22.6702 23.3284C22.9361 23.5953 23.2851 23.5953 23.5428 23.3284C23.7256 23.1425 23.7339 23.0939 23.684 22.3015C23.4513 18.388 20.1022 15.1213 16.0966 14.9029L15.2655 14.8544L15.0827 15.0808Z" fill="black"/>
</svg>
